<svg xmlns="http://www.w3.org/2000/svg" viewBox="0 0 220 40" fill="none">
  <!-- Icon: Stylized S in a circle -->
  <circle cx="20" cy="20" r="18" fill="none" stroke="#E2E8F0" stroke-width="2.5"/>
  <path d="M14 16.5C14 14 16 12 19 12C22 12 24 13.5 24 15.5C24 18.5 14 18 14 23C14 25.5 16.5 28 20 28C23.5 28 26 26 26 23.5" stroke="#E2E8F0" stroke-width="2.5" stroke-linecap="round"/>
  <!-- Three flowing stream lines -->
  <path d="M12 20C14 18 16 22 18 20" stroke="#FFD60A" stroke-width="1.5" stroke-linecap="round" opacity="0.6"/>
  <path d="M16 23C18 21 20 25 22 23" stroke="#FFD60A" stroke-width="1.5" stroke-linecap="round" opacity="0.8"/>
  <path d="M20 26C22 24 24 28 26 26" stroke="#FFD60A" stroke-width="1.5" stroke-linecap="round" opacity="0.4"/>
  <!-- Text -->
  <text x="46" y="27" font-family="Inter, -apple-system, sans-serif" font-size="22" font-weight="700" fill="#F1F2FF">
    <tspan>Skill</tspan><tspan fill="#FFD60A">Stream</tspan>
  </text>
</svg>
